# Blender v2.73 (sub 0) OBJ File: 'refrigerator.blend'
# www.blender.org
o nodebox-1.001
v -0.500000 -0.500000 0.421875
v -0.500000 -0.500000 -0.500000
v 0.500000 -0.500000 -0.500000
v 0.500000 -0.500000 0.421875
v -0.500000 1.500000 0.421875
v 0.484375 -0.421875 0.437500
v 0.500000 1.500000 -0.500000
v 0.500000 1.500000 0.421875
v -0.500000 -0.437500 -0.500000
v -0.500000 -0.437500 -0.515625
v 0.023438 -0.437500 -0.515625
v 0.023438 -0.437500 -0.500000
v -0.500000 1.500000 -0.500000
v -0.500000 1.500000 -0.515625
v 0.023438 1.500000 -0.515625
v 0.023438 1.500000 -0.500000
v 0.035156 -0.437500 -0.500000
v 0.035156 -0.437500 -0.515625
v 0.500000 -0.437500 -0.515625
v 0.500000 -0.437500 -0.500000
v 0.035156 1.500000 -0.500000
v 0.035156 1.500000 -0.515625
v 0.500000 1.500000 -0.515625
v -0.484375 -0.421875 0.437500
v 0.140625 1.000000 -0.589563
v 0.140625 0.312500 -0.589563
v -0.046875 0.312500 -0.589563
v -0.046875 1.000000 -0.589563
v -0.031250 0.312500 -0.562500
v -0.031250 1.000000 -0.562500
v -0.046875 0.312500 -0.535437
v -0.046875 1.000000 -0.535437
v -0.078125 0.312500 -0.535437
v -0.078125 1.000000 -0.535437
v -0.093750 0.312500 -0.562500
v -0.093750 1.000000 -0.562500
v -0.078125 0.312500 -0.589563
v -0.078125 1.000000 -0.589563
v 0.156250 0.312500 -0.562500
v 0.156250 1.000000 -0.562500
v 0.140625 0.312500 -0.535437
v 0.140625 1.000000 -0.535437
v 0.109375 0.312500 -0.535437
v 0.109375 1.000000 -0.535437
v 0.093750 0.312500 -0.562500
v 0.093750 1.000000 -0.562500
v 0.109375 0.312500 -0.589563
v 0.109375 1.000000 -0.589563
v 0.078125 1.000000 -0.515484
v 0.078125 1.000000 -0.562359
v 0.171875 1.000000 -0.562359
v 0.171875 1.000000 -0.515484
v 0.078125 1.046875 -0.515484
v 0.078125 1.046875 -0.562359
v 0.171875 1.046875 -0.562359
v 0.171875 1.046875 -0.515484
v -0.095646 1.046875 -0.595504
v -0.095646 1.000000 -0.595504
v 0.125000 1.000000 -0.609234
v 0.125000 1.046875 -0.609234
v 0.142938 1.000000 -0.605666
v 0.142938 1.046875 -0.605666
v 0.158146 1.000000 -0.595504
v 0.158146 1.046875 -0.595504
v 0.168307 1.000000 -0.580297
v 0.168307 1.046875 -0.580297
v -0.015625 1.000000 -0.515484
v -0.015625 1.000000 -0.562359
v -0.105807 1.046875 -0.580297
v -0.105807 1.000000 -0.580297
v -0.019193 1.046875 -0.580297
v -0.019193 1.000000 -0.580297
v -0.029354 1.046875 -0.595504
v -0.029354 1.000000 -0.595504
v -0.044562 1.046875 -0.605666
v -0.044562 1.000000 -0.605666
v -0.062500 1.046875 -0.609234
v -0.062500 1.000000 -0.609234
v -0.015625 1.046875 -0.515484
v -0.015625 1.046875 -0.562359
v -0.109375 1.046875 -0.562359
v -0.109375 1.046875 -0.515484
v -0.109375 1.000000 -0.562359
v -0.109375 1.000000 -0.515484
v 0.081693 1.000000 -0.580297
v 0.081693 1.046875 -0.580297
v 0.091854 1.000000 -0.595504
v 0.091854 1.046875 -0.595504
v 0.107062 1.000000 -0.605666
v 0.107062 1.046875 -0.605666
v -0.080438 1.000000 -0.605666
v -0.080438 1.046875 -0.605666
v -0.095646 0.312500 -0.595504
v -0.095646 0.265625 -0.595504
v -0.015625 0.265625 -0.515484
v -0.015625 0.265625 -0.562359
v -0.105807 0.312500 -0.580297
v -0.105807 0.265625 -0.580297
v -0.019193 0.312500 -0.580297
v -0.019193 0.265625 -0.580297
v -0.029354 0.312500 -0.595504
v -0.029354 0.265625 -0.595504
v -0.044562 0.312500 -0.605666
v -0.044562 0.265625 -0.605666
v -0.062500 0.312500 -0.609234
v -0.062500 0.265625 -0.609234
v -0.015625 0.312500 -0.515484
v -0.015625 0.312500 -0.562359
v -0.109375 0.312500 -0.562359
v -0.109375 0.312500 -0.515484
v -0.109375 0.265625 -0.562359
v -0.109375 0.265625 -0.515484
v -0.080438 0.265625 -0.605666
v -0.080438 0.312500 -0.605666
v 0.091854 0.312500 -0.595504
v 0.091854 0.265625 -0.595504
v 0.171875 0.265625 -0.515484
v 0.171875 0.265625 -0.562359
v 0.081693 0.312500 -0.580297
v 0.081693 0.265625 -0.580297
v 0.168307 0.312500 -0.580297
v 0.168307 0.265625 -0.580297
v 0.158146 0.312500 -0.595504
v 0.158146 0.265625 -0.595504
v 0.142938 0.312500 -0.605666
v 0.142938 0.265625 -0.605666
v 0.125000 0.312500 -0.609234
v 0.125000 0.265625 -0.609234
v 0.171875 0.312500 -0.515484
v 0.171875 0.312500 -0.562359
v 0.078125 0.312500 -0.562359
v 0.078125 0.312500 -0.515484
v 0.078125 0.265625 -0.562359
v 0.078125 0.265625 -0.515484
v 0.107062 0.265625 -0.605666
v 0.107062 0.312500 -0.605666
v 0.035156 0.531250 -0.515625
v 0.500000 0.531250 -0.515625
v 0.437500 0.828125 -0.515625
v 0.437500 0.531250 -0.515625
v 0.035156 0.828125 -0.515625
v 0.500000 0.828125 -0.515625
v 0.125000 0.531250 -0.515625
v 0.125000 0.828125 -0.515625
v 0.437500 0.828125 -0.375000
v 0.437500 0.531250 -0.375000
v 0.125000 0.531250 -0.375000
v 0.125000 0.828125 -0.375000
v 0.312500 0.640625 -0.437500
v 0.312500 0.640625 -0.449219
v 0.375000 0.640625 -0.449219
v 0.375000 0.640625 -0.437500
v 0.312500 0.828125 -0.437500
v 0.312500 0.828125 -0.449219
v 0.375000 0.828125 -0.449219
v 0.375000 0.828125 -0.437500
v 0.187500 0.640625 -0.437500
v 0.187500 0.640625 -0.449219
v 0.250000 0.640625 -0.449219
v 0.250000 0.640625 -0.437500
v 0.187500 0.828125 -0.437500
v 0.187500 0.828125 -0.449219
v 0.250000 0.828125 -0.449219
v 0.250000 0.828125 -0.437500
v -0.484375 1.484375 0.437500
v 0.484375 1.484375 0.437500
v 0.484375 -0.421875 0.421875
v -0.484375 -0.421875 0.421875
v -0.484375 1.484375 0.421875
v 0.484375 1.484375 0.421875
v -0.500000 -0.421875 0.421875
v 0.500000 1.484375 0.421875
v -0.500000 1.484375 0.421875
v 0.500000 -0.421875 0.421875
vt 0.671875 0.500000
vt 0.687500 0.500000
vt 0.687500 0.968750
vt 0.671875 0.968750
vt 0.515625 0.984375
vt 0.500000 0.984375
vt 0.500000 0.500000
vt 0.515625 0.500000
vt 0.031250 0.984375
vt 0.265625 0.984375
vt 0.265625 0.484375
vt 0.031250 0.484375
vt 0.296875 0.250000
vt 0.296875 0.046875
vt 0.546875 0.046875
vt 0.546875 0.250000
vt 0.984375 0.968750
vt 0.968750 0.968750
vt 0.968750 0.500000
vt 0.984375 0.500000
vt 0.015625 0.984375
vt 0.015625 0.484375
vt 0.640625 0.984375
vt 0.640625 0.500000
vt 0.359375 0.984375
vt 0.343750 0.984375
vt 0.343750 0.500000
vt 0.359375 0.500000
vt 0.312500 0.984375
vt 0.296875 0.984375
vt 0.296875 0.812500
vt 0.296875 0.734375
vt 0.296875 0.500000
vt 0.312500 0.500000
vt 0.296875 0.031250
vt 0.406250 0.031250
vt 0.406250 0.046875
vt 0.140625 0.046875
vt 0.140625 0.031250
vt 0.265625 0.031250
vt 0.265625 0.046875
vt 0.390625 0.796875
vt 0.390625 0.718750
vt 0.406250 0.718750
vt 0.406250 0.796875
vt 0.421875 0.046875
vt 0.421875 0.031250
vt 0.546875 0.031250
vt 0.937500 0.968750
vt 0.718750 0.968750
vt 0.718750 0.500000
vt 0.937500 0.500000
vt 0.390625 0.500000
vt 0.390625 0.484375
vt 0.640625 0.484375
vt 0.575846 0.437297
vt 0.575846 0.450788
vt 0.548864 0.450788
vt 0.548864 0.437297
vt 0.549891 0.432135
vt 0.552815 0.427758
vt 0.557192 0.424833
vt 0.562355 0.423807
vt 0.567518 0.424833
vt 0.571894 0.427758
vt 0.574819 0.432135
vt 0.548842 0.450788
vt 0.548842 0.437287
vt 0.552797 0.427739
vt 0.562344 0.423785
vt 0.571891 0.427739
vt 0.500000 0.718750
vt 0.390625 0.984375
vt 0.500000 0.796875
vt 0.484375 0.796875
vt 0.484375 0.718750
vt 0.093750 0.328125
vt 0.140625 0.328125
vt 0.140625 0.359375
vt 0.093750 0.359375
vt 0.218750 0.328125
vt 0.265625 0.328125
vt 0.265625 0.359375
vt 0.218750 0.359375
vt 0.015625 0.359375
vt 0.015625 0.328125
vt 0.109375 0.406250
vt 0.109375 0.390625
vt 0.156250 0.390625
vt 0.156250 0.406250
vt 0.031250 0.453125
vt 0.015625 0.453125
vt 0.015625 0.406250
vt 0.031250 0.406250
vt 0.218750 0.390625
vt 0.218750 0.406250
vt 0.171875 0.406250
vt 0.171875 0.390625
vt 0.015625 0.046875
vt 0.015625 0.031250
vt 0.125000 0.031250
vt 0.125000 0.046875
vt 0.015625 0.250000
vt 0.265625 0.250000
vt 0.109375 0.453125
vt 0.109375 0.437500
vt 0.156250 0.437500
vt 0.156250 0.453125
vt 0.078125 0.453125
vt 0.062500 0.453125
vt 0.062500 0.406250
vt 0.078125 0.406250
vt 0.218750 0.437500
vt 0.218750 0.453125
vt 0.171875 0.453125
vt 0.171875 0.437500
vt 0.015625 0.734375
vt 0.015625 0.796875
vt 0.031250 0.296875
vt 0.031250 0.281250
vt 0.250000 0.281250
vt 0.250000 0.296875
vt 0.312500 0.296875
vt 0.312500 0.281250
vt 0.531250 0.281250
vt 0.531250 0.296875
vt 0.953125 0.484375
vt 0.953125 0.500000
vt 0.703125 0.500000
vt 0.703125 0.484375
vt 0.953125 0.968750
vt 0.953125 0.984375
vt 0.703125 0.984375
vt 0.703125 0.968750
vt 0.609375 0.437500
vt 0.640625 0.437500
vt 0.640625 0.453125
vt 0.609375 0.453125
vt 0.515625 0.437500
vt 0.312500 0.437500
vt 0.312500 0.421875
vt 0.515625 0.421875
vt 0.515625 0.390625
vt 0.312500 0.390625
vt 0.312500 0.375000
vt 0.515625 0.375000
vt 0.515625 0.453125
vt 0.312500 0.453125
vt 0.312500 0.359375
vt 0.515625 0.359375
vt 0.312500 0.406250
vt 0.515625 0.406250
vt 0.656250 0.437500
vt 0.656250 0.453125
vt 0.734375 0.437500
vt 0.765625 0.437500
vt 0.765625 0.453125
vt 0.734375 0.453125
vt 0.718750 0.453125
vt 0.718750 0.437500
vt 0.671875 0.437500
vt 0.671875 0.453125
vt 0.687500 0.453125
vt 0.687500 0.437500
vt 0.703125 0.437500
vt 0.703125 0.453125
vn 1.000000 0.000000 0.000000
vn 0.000000 0.000000 -1.000000
vn 0.000000 -1.000000 -0.000000
vn -1.000000 0.000000 0.000000
vn 0.000000 1.000000 0.000000
vn 0.000000 -0.000000 1.000000
vn -0.995200 0.000000 -0.098000
vn -0.500000 -0.000000 0.866000
vn 0.500000 0.000000 -0.866000
vn 0.500000 -0.000000 0.866000
vn -0.500000 0.000000 -0.866000
vn -0.923900 0.000000 -0.382700
vn 0.995200 0.000000 -0.098000
vn 0.923900 0.000000 -0.382700
vn -0.707100 0.000000 -0.707100
vn 0.382700 0.000000 -0.923900
vn -0.382700 0.000000 -0.923900
vn 0.707100 0.000000 -0.707100
s off
f 6/1/1 167/2/1 170/3/1 166/4/1
f 16/5/2 21/6/2 17/7/2 12/8/2
f 7/9/1 8/10/1 4/11/1 3/12/1
f 1/13/3 2/14/3 3/15/3 4/16/3
f 165/17/4 169/18/4 168/19/4 24/20/4
f 13/9/4 14/21/4 10/22/4 9/12/4
f 14/23/2 15/5/2 11/8/2 10/24/2
f 15/25/1 16/26/1 12/27/1 11/28/1
f 21/29/4 22/30/4 141/31/4 137/32/4 18/33/4 17/34/4
f 9/14/3 10/35/3 11/36/3 12/37/3
f 16/38/5 15/39/5 14/40/5 13/41/5
f 142/42/2 138/43/2 140/44/2 139/45/2
f 17/46/3 18/47/3 19/48/3 20/15/3
f 166/49/6 165/50/6 24/51/6 6/52/6
f 20/53/2 3/54/2 2/55/2 9/24/2
f 131/56/5 132/57/5 129/58/5 130/59/5 121/60/5 123/61/5 125/62/5 127/63/5 136/64/5 115/65/5 119/66/5
f 49/67/3 50/68/3 85/60/3 87/69/3 89/62/3 59/70/3 61/64/3 63/71/3 65/66/3 51/56/3 52/57/3
f 112/67/3 111/68/3 98/60/3 94/69/3 113/62/3 106/70/3 104/64/3 102/71/3 100/66/3 96/56/3 95/57/3
f 54/56/5 53/57/5 56/58/5 55/59/5 66/60/5 64/61/5 62/62/5 60/63/5 90/64/5 88/65/5 86/66/5
f 81/56/5 82/57/5 79/58/5 80/59/5 71/60/5 73/61/5 75/62/5 77/63/5 92/64/5 57/65/5 69/66/5
f 134/67/3 133/68/3 120/60/3 116/69/3 135/62/3 128/70/3 126/64/3 124/71/3 122/66/3 118/56/3 117/57/3
f 109/56/5 110/57/5 107/58/5 108/59/5 99/60/5 101/61/5 103/62/5 105/63/5 114/64/5 93/65/5 97/66/5
f 84/67/3 83/68/3 70/60/3 58/69/3 91/62/3 78/70/3 76/64/3 74/71/3 72/66/3 68/56/3 67/57/3
f 137/72/2 138/43/2 19/53/2 18/7/2
f 22/6/2 23/73/2 142/42/2 141/74/2
f 137/72/2 141/74/2 144/75/2 143/76/2
f 143/77/1 144/78/1 148/79/1 147/80/1
f 139/81/4 140/82/4 146/83/4 145/84/4
f 147/80/5 146/85/5 140/86/5 143/77/5
f 144/78/3 139/81/3 145/84/3 148/79/3
f 146/44/2 147/76/2 148/75/2 145/45/2
f 153/87/4 154/88/4 150/89/4 149/90/4
f 154/91/2 155/92/2 151/93/2 150/94/2
f 155/95/1 156/96/1 152/97/1 151/98/1
f 7/99/5 23/100/5 22/101/5 21/102/5
f 149/90/3 150/89/3 151/98/3 152/97/3
f 8/103/5 7/99/5 13/41/5 5/104/5
f 161/105/4 162/106/4 158/107/4 157/108/4
f 162/109/2 163/110/2 159/111/2 158/112/2
f 163/113/1 164/114/1 160/115/1 159/116/1
f 23/21/1 7/9/1 20/12/1 19/22/1 138/117/1 142/118/1
f 157/108/3 158/107/3 159/116/3 160/115/3
f 5/10/4 13/9/4 2/12/4 1/11/4
f 166/119/5 170/120/5 169/121/5 165/122/5
f 24/123/3 168/124/3 167/125/3 6/126/3
f 4/127/6 174/128/6 171/129/6 1/130/6
f 172/131/6 8/132/6 5/133/6 173/134/6
f 172/131/6 170/49/6 167/52/6 174/128/6
f 169/50/6 173/134/6 171/129/6 168/51/6
s 1
f 53/135/4 54/136/7 50/137/7 49/138/4
f 43/139/8 44/140/8 46/141/4 45/142/4
f 27/143/9 28/144/9 30/145/1 29/146/1
f 41/147/10 42/148/10 44/140/8 43/139/8
f 29/146/1 30/145/1 32/149/10 31/150/10
f 45/142/4 46/141/4 48/151/11 47/152/11
f 39/146/1 40/145/1 42/149/10 41/150/10
f 31/147/10 32/148/10 34/140/8 33/139/8
f 47/152/11 48/151/11 25/144/9 26/143/9
f 26/143/9 25/144/9 40/145/1 39/146/1
f 33/139/8 34/140/8 36/141/4 35/142/4
f 37/152/11 38/151/11 28/144/9 27/143/9
f 35/142/4 36/141/4 38/151/11 37/152/11
f 83/137/7 81/136/7 69/153/12 70/154/12
f 55/155/13 56/156/1 52/157/1 51/158/13
f 122/159/14 121/160/14 130/155/13 118/158/13
f 98/154/12 97/153/12 93/161/15 94/162/15
f 59/163/2 60/164/2 62/165/16 61/166/16
f 113/162/17 114/161/17 105/164/2 106/163/2
f 61/166/16 62/165/16 64/160/18 63/159/18
f 133/137/7 131/136/7 119/153/12 120/154/12
f 94/162/15 93/161/15 114/161/17 113/162/17
f 63/159/18 64/160/18 66/160/14 65/159/14
f 124/166/18 123/165/18 121/160/14 122/159/14
f 110/135/4 109/136/7 111/137/7 112/138/4
f 126/166/16 125/165/16 123/165/18 124/166/18
f 108/155/13 107/156/1 95/157/1 96/158/13
f 74/159/18 73/160/18 71/155/14 72/158/14
f 128/163/2 127/164/2 125/165/16 126/166/16
f 76/166/16 75/165/16 73/160/18 74/159/18
f 106/163/2 105/164/2 103/165/16 104/166/16
f 78/163/2 77/164/2 75/165/16 76/166/16
f 130/155/13 129/156/1 117/157/1 118/158/13
f 104/166/16 103/165/16 101/160/18 102/159/18
f 132/135/4 131/136/7 133/137/7 134/138/4
f 102/159/18 101/160/18 99/160/14 100/159/14
f 80/155/13 79/156/1 67/157/1 68/158/13
f 116/154/15 115/153/15 136/161/17 135/162/17
f 111/137/7 109/136/7 97/153/12 98/154/12
f 82/135/4 81/136/7 83/137/7 84/138/4
f 135/162/17 136/161/17 127/164/2 128/163/2
f 58/162/15 57/161/15 92/164/17 91/163/17
f 50/137/7 54/136/7 86/153/12 85/154/12
f 120/154/12 119/153/12 115/153/15 116/154/15
f 91/163/17 92/164/17 77/164/2 78/163/2
f 65/159/14 66/160/14 55/155/13 51/158/13
f 70/154/12 69/153/12 57/161/15 58/162/15
f 100/159/14 99/160/14 108/155/13 96/158/13
f 85/154/12 86/153/12 88/161/15 87/162/15
f 72/158/14 71/155/14 80/155/13 68/158/13
f 89/162/17 90/161/17 60/164/2 59/163/2
f 87/162/15 88/161/15 90/161/17 89/162/17
