# Blender v2.73 (sub 0) OBJ File: 'kitchen-faucet.blend'
# www.blender.org
o Cylinder
v -0.000001 -0.062671 0.278471
v 0.028112 -0.074316 0.278471
v 0.039756 -0.102428 0.278471
v 0.028112 -0.130540 0.278471
v -0.000001 -0.142184 0.278471
v -0.028113 -0.130540 0.278471
v -0.039757 -0.102428 0.278471
v -0.028113 -0.074316 0.278471
v -0.000001 -0.077803 0.354543
v 0.028112 -0.088561 0.350087
v 0.039756 -0.114533 0.339329
v 0.028112 -0.140505 0.328570
v -0.000001 -0.151264 0.324114
v -0.028113 -0.140505 0.328570
v -0.039757 -0.114533 0.339329
v -0.028113 -0.088561 0.350087
v -0.000001 -0.120894 0.419033
v 0.028112 -0.129128 0.410800
v 0.039756 -0.149006 0.390921
v 0.028112 -0.168885 0.371043
v -0.000001 -0.177119 0.362809
v -0.028113 -0.168885 0.371043
v -0.039757 -0.149006 0.390921
v -0.028113 -0.129128 0.410800
v -0.000001 -0.185385 0.462125
v 0.028112 -0.189841 0.451367
v 0.039756 -0.200599 0.425394
v 0.028112 -0.211357 0.399422
v -0.000001 -0.215813 0.388664
v -0.028113 -0.211357 0.399422
v -0.039757 -0.200599 0.425394
v -0.028113 -0.189841 0.451367
v -0.000001 -0.261457 0.397743
v -0.028113 -0.261457 0.409388
v -0.039757 -0.261457 0.437500
v -0.039757 -0.429688 0.437500
v -0.028113 -0.429688 0.409387
v -0.000000 -0.429688 0.397743
v 0.028113 -0.429688 0.409387
v 0.028113 -0.261457 0.409387
v 0.039757 -0.429688 0.437500
v 0.039757 -0.261457 0.437500
v 0.028113 -0.429688 0.465613
v 0.028113 -0.261457 0.465613
v -0.000000 -0.429688 0.477257
v -0.000000 -0.261457 0.477257
v -0.028113 -0.429688 0.465613
v -0.028113 -0.261457 0.465613
v -0.000001 -0.062671 0.198956
v 0.028112 -0.074316 0.198956
v 0.039756 -0.102428 0.198956
v 0.028112 -0.130540 0.198956
v -0.000001 -0.142184 0.198956
v -0.028113 -0.130540 0.198956
v -0.039757 -0.102428 0.198956
v -0.028113 -0.074316 0.198956
v -0.000001 -0.090877 0.131657
v 0.028112 -0.099014 0.139987
v 0.039756 -0.118659 0.160096
v 0.028112 -0.138304 0.180205
v -0.000001 -0.146441 0.188534
v -0.028113 -0.138304 0.180205
v -0.039757 -0.118659 0.160096
v -0.028113 -0.099014 0.139987
v -0.000001 -0.152992 0.097615
v 0.028112 -0.155461 0.108995
v 0.039756 -0.161422 0.136468
v 0.028112 -0.167383 0.163941
v -0.000001 -0.169852 0.175320
v -0.028113 -0.167383 0.163941
v -0.039757 -0.161422 0.136468
v -0.028113 -0.155461 0.108995
v 0.000032 -0.156294 0.181851
v 0.000032 -0.116962 0.108762
v 0.028179 -0.122722 0.119466
v -0.028114 -0.150534 0.171148
v -0.039772 -0.136628 0.145307
v 0.039837 -0.136628 0.145307
v -0.028114 -0.122722 0.119466
v 0.028179 -0.150534 0.171148
v 0.028179 -0.132068 0.188529
v -0.028114 -0.080197 0.166688
v 0.000032 -0.142811 0.193053
v 0.000032 -0.069454 0.162164
v 0.028179 -0.080197 0.166688
v -0.028114 -0.132068 0.188529
v 0.039837 -0.106132 0.177608
v -0.039772 -0.106132 0.177608
v -0.061719 -0.451562 0.396875
v -0.142969 -0.451562 0.396875
v 0.062500 -0.451562 0.396875
v 0.143750 -0.451562 0.396875
v 0.062500 -0.480289 0.408774
v 0.143750 -0.480289 0.408774
v 0.062500 -0.492188 0.437500
v 0.143750 -0.492188 0.437500
v 0.062500 -0.480289 0.466226
v 0.143750 -0.480289 0.466226
v 0.062500 -0.451562 0.478125
v 0.143750 -0.451562 0.478125
v 0.062500 -0.422836 0.466226
v 0.143750 -0.422836 0.466226
v 0.062500 -0.410937 0.437500
v 0.143750 -0.410937 0.437500
v 0.062500 -0.422836 0.408774
v 0.143750 -0.422836 0.408774
v -0.142969 -0.480289 0.408774
v -0.061719 -0.480289 0.408774
v -0.142969 -0.492188 0.437500
v -0.061719 -0.492188 0.437500
v -0.142969 -0.480289 0.466226
v -0.061719 -0.480289 0.466226
v -0.142969 -0.451562 0.478125
v -0.061719 -0.451562 0.478125
v -0.142969 -0.422836 0.466226
v -0.061719 -0.422836 0.466226
v -0.142969 -0.410937 0.437500
v -0.061719 -0.410937 0.437500
v -0.142969 -0.422836 0.408774
v -0.061719 -0.422836 0.408774
v -0.062500 -0.500000 0.375000
v 0.062500 -0.500000 0.375000
v -0.062500 -0.500000 0.500000
v 0.062500 -0.500000 0.500000
v -0.062500 -0.464123 0.495242
v 0.062500 -0.464123 0.495242
v -0.062500 -0.433709 0.481694
v 0.062500 -0.433709 0.481694
v -0.062500 -0.413386 0.461418
v 0.062500 -0.413386 0.461418
v -0.062500 -0.406250 0.437500
v 0.062500 -0.406250 0.437500
v -0.062500 -0.413386 0.413582
v 0.062500 -0.413386 0.413582
v -0.062500 -0.433709 0.393306
v 0.062500 -0.433709 0.393306
v -0.062500 -0.464123 0.379758
v 0.062500 -0.464123 0.379758
v -0.000001 -0.161422 0.136468
vt 0.187500 0.000000
vt 0.187500 0.312500
vt 0.125000 0.312500
vt 0.125000 0.000000
vt 0.500000 0.000000
vt 0.500000 0.312500
vt 0.437500 0.312500
vt 0.437500 0.000000
vt 0.062500 0.000000
vt 0.062500 0.312500
vt 0.000000 0.312500
vt 0.000000 0.000000
vt 0.187500 0.437500
vt 0.250000 0.312500
vt 0.250000 0.437500
vt 0.125000 0.437500
vt 0.437500 0.437500
vt 0.500000 0.437500
vt 0.375000 0.437500
vt 0.375000 0.312500
vt 0.312500 0.437500
vt 0.312500 0.312500
vt 0.250000 0.625000
vt 0.250000 0.562500
vt 0.312500 0.562500
vt 0.312500 0.625000
vt 0.375000 0.562500
vt 0.375000 0.625000
vt 0.437500 0.562500
vt 0.437500 0.625000
vt 0.500000 0.562500
vt 0.500000 0.625000
vt 0.000000 0.625000
vt 0.000000 0.562500
vt 0.062500 0.562500
vt 0.062500 0.625000
vt 0.125000 0.562500
vt 0.125000 0.625000
vt 0.187500 0.562500
vt 0.187500 0.625000
vt 0.250000 0.500000
vt 0.312500 0.500000
vt 0.375000 0.500000
vt 0.437500 0.500000
vt 0.500000 0.500000
vt 0.000000 0.500000
vt 0.062500 0.500000
vt 0.125000 0.500000
vt 0.187500 0.500000
vt 0.000000 0.437500
vt 0.062500 0.437500
vt 0.375000 0.000000
vt 0.312500 0.000000
vt 0.250000 0.000000
vt 0.582997 0.000000
vt 0.787184 0.000000
vt 0.779413 0.058604
vt 0.757281 0.108287
vt 0.724160 0.141483
vt 0.685091 0.153141
vt 0.646021 0.141483
vt 0.612899 0.108287
vt 0.590768 0.058604
vt 0.500000 0.750000
vt 0.437500 0.750000
vt 0.375000 0.750000
vt 0.187500 0.750000
vt 0.125000 0.750000
vt 0.250000 0.750000
vt 0.312500 0.750000
vt 0.062500 0.750000
vt 0.000000 0.750000
vt 0.250000 0.937500
vt 0.312500 0.937500
vt 0.312500 1.000000
vt 0.250000 1.000000
vt 0.375000 0.937500
vt 0.375000 1.000000
vt 0.437500 0.937500
vt 0.437500 1.000000
vt 0.500000 0.937500
vt 0.500000 1.000000
vt 0.000000 0.937500
vt 0.062500 0.937500
vt 0.062500 1.000000
vt 0.000000 1.000000
vt 0.125000 0.937500
vt 0.125000 1.000000
vt 0.187500 0.937500
vt 0.187500 1.000000
vt 0.250000 0.812500
vt 0.312500 0.812500
vt 0.312500 0.875000
vt 0.250000 0.875000
vt 0.375000 0.812500
vt 0.375000 0.875000
vt 0.437500 0.812500
vt 0.437500 0.875000
vt 0.500000 0.812500
vt 0.500000 0.875000
vt 0.000000 0.812500
vt 0.062500 0.812500
vt 0.062500 0.875000
vt 0.000000 0.875000
vt 0.125000 0.812500
vt 0.125000 0.875000
vt 0.187500 0.812500
vt 0.187500 0.875000
vt 0.937500 0.937500
vt 1.000000 0.937500
vt 1.000000 1.000000
vt 0.937500 1.000000
vt 0.812500 0.625000
vt 0.875000 0.625000
vt 0.875000 0.687500
vt 0.812500 0.687500
vt 0.937500 0.875000
vt 1.000000 0.875000
vt 0.875000 0.750000
vt 0.812500 0.750000
vt 0.937500 0.812500
vt 1.000000 0.812500
vt 0.875000 0.812500
vt 0.812500 0.812500
vt 0.838381 0.080809
vt 0.862049 0.023669
vt 0.919190 0.000000
vt 0.976331 0.023669
vt 1.000000 0.080809
vt 0.976331 0.137950
vt 0.919190 0.161619
vt 0.862049 0.137950
vt 0.937500 0.750000
vt 1.000000 0.750000
vt 0.875000 0.875000
vt 0.812500 0.875000
vt 0.937500 0.500000
vt 1.000000 0.500000
vt 1.000000 0.562500
vt 0.937500 0.562500
vt 0.937500 0.687500
vt 1.000000 0.687500
vt 0.875000 0.937500
vt 0.812500 0.937500
vt 1.000000 0.625000
vt 0.937500 0.625000
vt 0.875000 1.000000
vt 0.812500 1.000000
vt 0.862050 0.137950
vt 0.862050 0.023669
vt 0.812500 0.562500
vt 0.875000 0.562500
vt 0.812500 0.500000
vt 0.875000 0.500000
vt 0.562500 0.500000
vt 0.750000 0.500000
vt 0.750000 0.562500
vt 0.562500 0.562500
vt 0.750000 0.625000
vt 0.562500 0.625000
vt 0.750000 0.687500
vt 0.562500 0.687500
vt 0.750000 0.750000
vt 0.562500 0.750000
vt 0.750000 0.812500
vt 0.562500 0.812500
vt 0.750000 0.875000
vt 0.562500 0.875000
vt 0.562500 0.937500
vt 0.750000 0.937500
vt 0.750000 1.000000
vt 0.562500 1.000000
vt 0.812500 0.250000
vt 1.000000 0.250000
vt 1.000000 0.437500
vt 0.812500 0.437500
vt 0.656250 0.247387
vt 0.724812 0.275611
vt 0.656250 0.343750
vt 0.753210 0.343750
vt 0.724811 0.411889
vt 0.656250 0.440113
vt 0.587688 0.411888
vt 0.559289 0.343750
vt 0.587688 0.275611
vn -0.707100 0.000000 0.707100
vn -0.694200 0.070800 0.716300
vn -0.999700 0.004700 0.023800
vn -1.000000 0.000000 -0.000000
vn -0.000000 0.000000 -1.000000
vn 0.000000 -0.100400 -0.994900
vn 0.718000 -0.068500 -0.692600
vn 0.707100 0.000000 -0.707100
vn -0.707100 0.000000 -0.707100
vn -0.718000 -0.068500 -0.692600
vn -0.684000 0.279100 0.673900
vn 0.000000 0.095800 0.995400
vn 0.000000 0.382700 0.923900
vn -0.998800 0.018300 0.044100
vn 0.731700 -0.260800 -0.629700
vn 0.000000 -0.382700 -0.923900
vn 0.998800 0.018300 0.044100
vn 0.999700 0.004700 0.023800
vn 0.684000 0.279100 0.673900
vn 0.694200 0.070800 0.716300
vn 0.000000 0.995400 0.095700
vn 0.000000 0.923900 0.382700
vn 0.684000 0.673900 0.279100
vn 0.694200 0.716300 0.070700
vn 0.998800 0.044100 0.018300
vn 0.999700 0.023800 0.004700
vn 0.731700 -0.629700 -0.260800
vn 0.718000 -0.692600 -0.068500
vn 0.000000 -0.923900 -0.382700
vn 0.000000 -0.994900 -0.100400
vn -0.731700 -0.629700 -0.260800
vn -0.718000 -0.692600 -0.068500
vn -0.998800 0.044100 0.018300
vn -0.999700 0.023800 0.004700
vn -0.684000 0.673900 0.279100
vn -0.694200 0.716300 0.070700
vn 0.000000 0.707100 0.707100
vn 0.684000 0.515800 0.515800
vn 0.998800 0.033800 0.033800
vn 0.731700 -0.481900 -0.481900
vn 0.000000 -0.707100 -0.707100
vn -0.731700 -0.481900 -0.481900
vn -0.998800 0.033800 0.033800
vn -0.684000 0.515800 0.515800
vn -0.731700 -0.260800 -0.629700
vn 1.000000 0.000000 0.000000
vn 0.707100 0.000000 0.707100
vn -0.000000 0.000000 1.000000
vn 0.570700 -0.541100 0.617600
vn 0.570700 -0.541100 -0.617600
vn 0.676300 0.200400 -0.708900
vn 0.668400 0.421000 -0.613100
vn 0.655800 0.648200 -0.387000
vn 0.648000 0.761600 0.000000
vn 0.655800 0.648200 0.387000
vn 0.668400 0.421000 0.613100
vn 0.676300 0.200400 0.708900
vn -0.000600 -0.997700 0.066900
vn 0.713700 -0.698500 0.051500
vn 0.999800 0.021100 -0.003300
vn -0.694800 0.716200 -0.064900
vn -0.999800 0.020800 -0.004800
vn -0.000100 0.996100 -0.088500
vn 0.694600 0.716500 -0.064200
vn -0.714000 -0.698400 0.049600
vn 0.000200 0.488100 -0.872700
vn 0.691000 0.353900 -0.630200
vn 0.556700 -0.470300 -0.684700
vn -0.000200 -0.412600 -0.910900
vn 0.999200 0.019700 -0.034500
vn 0.773900 -0.613000 -0.158700
vn 0.726300 -0.341800 0.596300
vn 0.541200 -0.769100 0.339900
vn 0.000600 -0.499000 0.866600
vn -0.000400 -0.841200 0.540700
vn -0.726000 -0.342200 0.596500
vn -0.542000 -0.768300 0.340400
vn -0.999200 0.019800 -0.034900
vn -0.774700 -0.612200 -0.158200
vn -0.690700 0.354000 -0.630500
vn -0.557300 -0.469800 -0.684700
vn 0.000200 0.922100 -0.386900
vn 0.683100 0.673500 -0.282400
vn 0.692600 0.535000 -0.483800
vn -0.000200 0.741800 -0.670600
vn 0.998500 0.049900 -0.021000
vn 0.999400 0.028000 -0.018000
vn 0.741500 -0.619500 0.257500
vn 0.726200 -0.484000 0.488200
vn 0.001300 -0.923900 0.382600
vn -0.001000 -0.694000 0.720000
vn -0.741200 -0.619900 0.257700
vn -0.726500 -0.483400 0.488300
vn -0.998500 0.050400 -0.021200
vn -0.999500 0.027800 -0.017600
vn -0.682600 0.673900 -0.282600
vn -0.693000 0.534700 -0.483600
vn -0.630200 0.549000 0.549000
vn 0.000000 1.000000 -0.000000
vn -0.630200 0.776400 0.000000
vn 0.630200 0.000000 -0.776400
vn 0.630200 -0.549000 -0.549000
vn -0.630200 0.000000 0.776400
vn 0.630200 -0.776400 0.000000
vn 0.000000 -1.000000 0.000000
vn -0.630200 -0.549000 0.549000
vn 0.000000 -0.707100 0.707100
vn 0.630200 -0.549000 0.549000
vn -0.630200 0.000000 -0.776400
vn -0.630200 -0.549000 -0.549000
vn -0.630200 -0.776400 0.000000
vn -0.630200 0.549000 -0.549000
vn 0.630200 0.000000 0.776400
vn 0.000000 0.707100 -0.707100
vn 0.630200 0.549000 0.549000
vn 0.630200 0.776400 0.000000
vn 0.630200 0.549000 -0.549000
vn -0.570700 -0.541100 -0.617600
vn -0.570700 -0.541100 0.617600
vn -0.676300 0.200400 0.708900
vn -0.668400 0.421000 0.613100
vn -0.655800 0.648200 0.387000
vn -0.648000 0.761600 0.000000
vn -0.655800 0.648200 -0.387000
vn -0.668400 0.421000 -0.613100
vn -0.676300 0.200400 -0.708900
vn 0.000000 -0.977200 -0.212000
s 1
f 47/1/1 48/2/2 35/3/3 36/4/4
f 38/5/5 33/6/6 40/7/7 39/8/8
f 37/9/9 34/10/10 33/11/6 38/12/5
f 36/4/4 35/3/3 34/10/10 37/9/9
f 32/13/11 48/2/2 46/14/12 25/15/13
f 31/16/14 35/3/3 48/2/2 32/13/11
f 28/17/15 40/7/7 33/6/6 29/18/16
f 27/19/17 42/20/18 40/7/7 28/17/15
f 26/21/19 44/22/20 42/20/18 27/19/17
f 25/15/13 46/14/12 44/22/20 26/21/19
f 1/23/21 9/24/22 10/25/23 2/26/24
f 2/26/24 10/25/23 11/27/25 3/28/26
f 3/28/26 11/27/25 12/29/27 4/30/28
f 4/30/28 12/29/27 13/31/29 5/32/30
f 5/33/30 13/34/29 14/35/31 6/36/32
f 6/36/32 14/35/31 15/37/33 7/38/34
f 7/38/34 15/37/33 16/39/35 8/40/36
f 8/40/36 16/39/35 9/24/22 1/23/21
f 9/24/22 17/41/37 18/42/38 10/25/23
f 10/25/23 18/42/38 19/43/39 11/27/25
f 11/27/25 19/43/39 20/44/40 12/29/27
f 12/29/27 20/44/40 21/45/41 13/31/29
f 13/34/29 21/46/41 22/47/42 14/35/31
f 14/35/31 22/47/42 23/48/43 15/37/33
f 15/37/33 23/48/43 24/49/44 16/39/35
f 16/39/35 24/49/44 17/41/37 9/24/22
f 17/41/37 25/15/13 26/21/19 18/42/38
f 18/42/38 26/21/19 27/19/17 19/43/39
f 19/43/39 27/19/17 28/17/15 20/44/40
f 20/44/40 28/17/15 29/18/16 21/45/41
f 21/46/41 29/50/16 30/51/45 22/47/42
f 22/47/42 30/51/45 31/16/14 23/48/43
f 23/48/43 31/16/14 32/13/11 24/49/44
f 24/49/44 32/13/11 25/15/13 17/41/37
f 29/50/16 33/11/6 34/10/10 30/51/45
f 30/51/45 34/10/10 35/3/3 31/16/14
f 39/8/8 40/7/7 42/20/18 41/52/46
f 41/52/46 42/20/18 44/22/20 43/53/47
f 43/53/47 44/22/20 46/14/12 45/54/48
f 45/54/48 46/14/12 48/2/2 47/1/1
f 124/55/49 122/56/50 138/57/51 136/58/52 134/59/53 132/60/54 130/61/55 128/62/56 126/63/57
f 4/30/28 5/32/30 53/64/58 52/65/59
f 3/28/26 4/30/28 52/65/59 51/66/60
f 7/38/34 8/40/36 56/67/61 55/68/62
f 8/40/36 1/23/21 49/69/63 56/67/61
f 2/26/24 3/28/26 51/66/60 50/70/64
f 6/36/32 7/38/34 55/68/62 54/71/65
f 1/23/21 2/26/24 50/70/64 49/69/63
f 5/33/30 6/36/32 54/71/65 53/72/58
f 74/73/66 75/74/67 66/75/68 65/76/69
f 75/74/67 78/77/70 67/78/71 66/75/68
f 78/77/70 80/79/72 68/80/73 67/78/71
f 80/79/72 73/81/74 69/82/75 68/80/73
f 73/83/74 76/84/76 70/85/77 69/86/75
f 76/84/76 77/87/78 71/88/79 70/85/77
f 77/87/78 79/89/80 72/90/81 71/88/79
f 79/89/80 74/73/66 65/76/69 72/90/81
f 84/91/82 85/92/83 58/93/84 57/94/85
f 85/92/83 87/95/86 59/96/87 58/93/84
f 87/95/86 81/97/88 60/98/89 59/96/87
f 81/97/88 83/99/90 61/100/91 60/98/89
f 83/101/90 86/102/92 62/103/93 61/104/91
f 86/102/92 88/105/94 63/106/95 62/103/93
f 88/105/94 82/107/96 64/108/97 63/106/95
f 82/107/96 84/91/82 57/94/85 64/108/97
f 56/67/61 49/69/63 84/91/82 82/107/96
f 55/68/62 56/67/61 82/107/96 88/105/94
f 54/71/65 55/68/62 88/105/94 86/102/92
f 53/72/58 54/71/65 86/102/92 83/101/90
f 52/65/59 53/64/58 83/99/90 81/97/88
f 51/66/60 52/65/59 81/97/88 87/95/86
f 50/70/64 51/66/60 87/95/86 85/92/83
f 49/69/63 50/70/64 85/92/83 84/91/82
f 64/108/97 57/94/85 74/73/66 79/89/80
f 63/106/95 64/108/97 79/89/80 77/87/78
f 62/103/93 63/106/95 77/87/78 76/84/76
f 61/104/91 62/103/93 76/84/76 73/83/74
f 60/98/89 61/100/91 73/81/74 80/79/72
f 59/96/87 60/98/89 80/79/72 78/77/70
f 58/93/84 59/96/87 78/77/70 75/74/67
f 57/94/85 58/93/84 75/74/67 74/73/66
f 115/109/98 116/110/37 118/111/99 117/112/100
f 91/113/5 92/114/101 94/115/102 93/116/41
f 113/117/103 114/118/48 116/110/37 115/109/98
f 93/116/41 94/115/102 96/119/104 95/120/105
f 111/121/106 112/122/107 114/118/48 113/117/103
f 95/120/105 96/119/104 98/123/108 97/124/107
f 90/125/109 107/126/110 109/127/111 111/128/106 113/129/103 115/130/98 117/131/100 119/132/112
f 109/133/111 110/134/105 112/122/107 111/121/106
f 97/124/107 98/123/108 100/135/113 99/136/48
f 117/137/100 118/138/99 120/139/114 119/140/112
f 107/141/110 108/142/41 110/134/105 109/133/111
f 99/136/48 100/135/113 102/143/115 101/144/37
f 119/140/112 120/139/114 89/145/5 90/146/109
f 90/146/109 89/145/5 108/142/41 107/141/110
f 101/144/37 102/143/115 104/147/116 103/148/99
f 94/128/102 92/129/101 106/130/117 104/131/116 102/149/115 100/125/113 98/150/108 96/127/104
f 105/151/114 106/152/117 92/114/101 91/113/5
f 103/153/99 104/154/116 106/152/117 105/151/114
f 121/55/118 123/56/119 125/57/120 127/58/121 129/59/122 131/60/123 133/61/124 135/62/125 137/63/126
f 123/155/119 124/156/49 126/157/57 125/158/120
f 125/158/120 126/157/57 128/159/56 127/160/121
f 127/160/121 128/159/56 130/161/55 129/162/122
f 129/162/122 130/161/55 132/163/54 131/164/123
f 131/164/123 132/163/54 134/165/53 133/166/124
f 133/166/124 134/165/53 136/167/52 135/168/125
f 137/169/126 138/170/51 122/171/50 121/172/118
f 135/168/125 136/167/52 138/170/51 137/169/126
f 121/173/118 122/174/50 124/175/49 123/176/119
f 69/177/75 70/178/77 139/179/127
f 70/178/77 71/180/79 139/179/127
f 71/180/79 72/181/81 139/179/127
f 72/181/81 65/182/69 139/179/127
f 65/182/69 66/183/68 139/179/127
f 66/183/68 67/184/71 139/179/127
f 67/184/71 68/185/73 139/179/127
f 68/185/73 69/177/75 139/179/127
